<svg width="66" height="66" viewBox="0 0 66 66" fill="none" xmlns="http://www.w3.org/2000/svg">
<g id="Icon">
<rect id="Rectangle 16" x="0.984741" y="0.673706" width="64.7115" height="64.6575" rx="15" fill="#008BD8"/>
<g id="Icon Teacher">
<path id="Vector" d="M46.1541 35.3169H40.4053C40.2995 35.3169 40.1947 35.2954 40.0971 35.2537C39.9996 35.212 39.9113 35.1509 39.8376 35.0739C39.7638 34.997 39.706 34.9059 39.6677 34.806C39.6293 34.7061 39.6111 34.5993 39.6142 34.4922L39.696 31.6485C39.7018 31.4777 39.6462 31.3106 39.5395 31.1782C39.4328 31.0457 39.2822 30.957 39.1158 30.9285L28.8562 29.073C28.9047 29.214 28.9885 29.3399 29.0994 29.4382C29.2104 29.5365 29.3447 29.6039 29.4891 29.6338C30.3757 29.8619 33.895 31.2821 34.2938 31.4434C34.4406 31.5029 34.5665 31.6056 34.6551 31.7382C34.7438 31.8708 34.7911 32.0273 34.7911 32.1875V34.5157C34.7911 34.7282 34.7078 34.9319 34.5594 35.0822C34.411 35.2324 34.2098 35.3169 34 35.3169H20.7732C20.5633 35.3169 20.3621 35.2324 20.2138 35.0822C20.0654 34.9319 19.9821 34.7282 19.9821 34.5157V19.4573C19.9821 19.2448 20.0654 19.041 20.2138 18.8908C20.3621 18.7405 20.5633 18.6561 20.7732 18.6561H46.1541C46.3639 18.6561 46.5651 18.7405 46.7135 18.8908C46.8618 19.041 46.9452 19.2448 46.9452 19.4573V34.5157C46.9452 34.7282 46.8618 34.9319 46.7135 35.0822C46.5651 35.2324 46.3639 35.3169 46.1541 35.3169ZM41.2218 33.7145H45.363V20.2585H21.5643V33.7145H33.211V32.7312C31.9378 32.2216 29.6805 31.3361 29.1014 31.1871C28.5797 31.052 28.1134 30.7537 27.7689 30.3346C27.4244 29.9155 27.2193 29.397 27.1827 28.853C27.1567 28.6521 27.1783 28.4479 27.2456 28.2571C27.3129 28.0664 27.424 27.8946 27.5699 27.7559C27.7174 27.6149 27.8954 27.5107 28.0897 27.4516C28.2839 27.3924 28.4891 27.3799 28.689 27.4151L39.399 29.3513C39.9369 29.4511 40.4218 29.7421 40.7666 30.1719C41.1114 30.6017 41.2934 31.142 41.2798 31.6955L41.2218 33.7145Z" fill="white"/>
<path id="Vector_2" d="M37.3545 28.9084C36.7125 28.9085 36.0849 28.7158 35.551 28.3546C35.0172 27.9935 34.6011 27.4801 34.3554 26.8794C34.1097 26.2788 34.0454 25.6178 34.1706 24.9801C34.2959 24.3424 34.6051 23.7567 35.0591 23.297C35.5131 22.8373 36.0915 22.5243 36.7212 22.3975C37.3509 22.2708 38.0035 22.336 38.5966 22.5849C39.1897 22.8339 39.6965 23.2553 40.0531 23.796C40.4096 24.3367 40.5998 24.9723 40.5996 25.6225C40.5983 26.4937 40.256 27.3288 39.6477 27.9448C39.0394 28.5607 38.2147 28.9073 37.3545 28.9084ZM37.3545 23.9374C37.0255 23.9373 36.7038 24.036 36.4302 24.221C36.1566 24.406 35.9433 24.669 35.8173 24.9768C35.6913 25.2846 35.6583 25.6233 35.7224 25.9501C35.7864 26.2769 35.9448 26.5771 36.1773 26.8128C36.4099 27.0485 36.7062 27.209 37.0289 27.2741C37.3515 27.3392 37.686 27.306 37.99 27.1785C38.294 27.0511 38.5539 26.8353 38.7367 26.5583C38.9196 26.2814 39.0173 25.9557 39.0174 25.6225C39.0171 25.1758 38.8418 24.7475 38.5301 24.4316C38.2183 24.1157 37.7955 23.9379 37.3545 23.9374ZM24.625 43.6223C23.9831 43.6217 23.3558 43.4285 22.8224 43.0669C22.289 42.7054 21.8734 42.1918 21.6282 41.5911C21.3829 40.9903 21.3191 40.3295 21.4447 39.692C21.5703 39.0546 21.8798 38.4691 22.3339 38.0098C22.788 37.5504 23.3664 37.2377 23.996 37.1112C24.6256 36.9847 25.2781 37.0501 25.871 37.2991C26.4639 37.5481 26.9706 37.9696 27.327 38.5102C27.6834 39.0508 27.8735 39.6863 27.8733 40.3364C27.872 41.2081 27.5293 42.0437 26.9203 42.6598C26.3113 43.2758 25.4858 43.622 24.625 43.6223ZM24.625 38.6512C24.2961 38.6518 23.9748 38.751 23.7016 38.9364C23.4284 39.1218 23.2156 39.3851 23.0901 39.6929C22.9646 40.0007 22.932 40.3393 22.9964 40.6659C23.0609 40.9925 23.2194 41.2924 23.4521 41.5278C23.6848 41.7631 23.9812 41.9234 24.3037 41.9882C24.6263 42.053 24.9606 42.0196 25.2644 41.8921C25.5682 41.7646 25.8279 41.5488 26.0106 41.2719C26.1934 40.995 26.291 40.6694 26.2911 40.3364C26.2898 39.8898 26.1137 39.462 25.8013 39.1468C25.489 38.8316 25.0659 38.6547 24.625 38.655V38.6512Z" fill="white"/>
<path id="Vector_3" d="M28.0641 47.5443C27.8543 47.5443 27.6531 47.4599 27.5047 47.3096C27.3563 47.1594 27.273 46.9556 27.273 46.7431V46.5658C27.273 46.07 27.0785 45.5945 26.7323 45.2439C26.3862 44.8933 25.9166 44.6964 25.4271 44.6964H23.8232C23.3337 44.6964 22.8641 44.8933 22.518 45.2439C22.1718 45.5945 21.9773 46.07 21.9773 46.5658V46.7431C21.9773 46.9556 21.894 47.1594 21.7456 47.3096C21.5972 47.4599 21.396 47.5443 21.1862 47.5443C20.9764 47.5443 20.7752 47.4599 20.6268 47.3096C20.4784 47.1594 20.3951 46.9556 20.3951 46.7431V46.5658C20.3962 45.6454 20.7577 44.763 21.4004 44.1121C22.0431 43.4613 22.9144 43.0951 23.8232 43.094H25.4271C26.3359 43.0951 27.2072 43.4613 27.8499 44.1121C28.4926 44.763 28.8541 45.6454 28.8552 46.5658V46.7431C28.8552 46.9556 28.7719 47.1594 28.6235 47.3096C28.4751 47.4599 28.2739 47.5443 28.0641 47.5443ZM33.4637 43.6223C32.8217 43.6224 32.1942 43.4297 31.6603 43.0686C31.1265 42.7075 30.7104 42.1941 30.4647 41.5935C30.219 40.9929 30.1546 40.332 30.2798 39.6944C30.405 39.0567 30.714 38.471 31.1679 38.0113C31.6218 37.5515 32.2002 37.2384 32.8298 37.1115C33.4594 36.9847 34.112 37.0497 34.7051 37.2985C35.2982 37.5473 35.8051 37.9686 36.1618 38.5091C36.5184 39.0497 36.7088 39.6852 36.7088 40.3353C36.7078 41.2067 36.3656 42.0421 35.7573 42.6583C35.1489 43.2744 34.3241 43.6211 33.4637 43.6223ZM33.4637 38.655C33.1346 38.6549 32.813 38.7536 32.5393 38.9387C32.2657 39.1237 32.0524 39.3868 31.9264 39.6947C31.8005 40.0025 31.7675 40.3413 31.8317 40.6681C31.8958 40.9949 32.0543 41.2951 32.2869 41.5308C32.5196 41.7664 32.816 41.9269 33.1388 41.9918C33.4615 42.0568 33.796 42.0234 34.1 41.8958C34.4039 41.7683 34.6637 41.5523 34.8465 41.2752C35.0292 40.998 35.1267 40.6723 35.1266 40.339C35.126 39.8926 34.9507 39.4645 34.6389 39.1488C34.3272 38.8331 33.9045 38.6555 33.4637 38.655Z" fill="white"/>
<path id="Vector_4" d="M36.9028 47.5443C36.693 47.5443 36.4918 47.4599 36.3435 47.3096C36.1951 47.1594 36.1117 46.9556 36.1117 46.7431V46.5658C36.1117 46.07 35.9173 45.5945 35.5711 45.2439C35.2249 44.8933 34.7554 44.6964 34.2658 44.6964H32.6614C32.1719 44.6964 31.7024 44.8933 31.3562 45.2439C31.01 45.5945 30.8155 46.07 30.8155 46.5658V46.7431C30.8155 46.9556 30.7322 47.1594 30.5838 47.3096C30.4355 47.4599 30.2342 47.5443 30.0244 47.5443C29.8146 47.5443 29.6134 47.4599 29.465 47.3096C29.3167 47.1594 29.2333 46.9556 29.2333 46.7431V46.5658C29.2344 45.6454 29.596 44.763 30.2386 44.1121C30.8813 43.4613 31.7526 43.0951 32.6614 43.094H34.2658C35.1747 43.0951 36.046 43.4613 36.6886 44.1121C37.3313 44.763 37.6928 45.6454 37.694 46.5658V46.7431C37.694 46.9556 37.6106 47.1594 37.4622 47.3096C37.3139 47.4599 37.1127 47.5443 36.9028 47.5443ZM42.3024 43.6223C41.6605 43.6224 41.0329 43.4297 40.4991 43.0686C39.9653 42.7075 39.5492 42.1941 39.3035 41.5935C39.0577 40.9929 38.9934 40.332 39.1186 39.6944C39.2437 39.0567 39.5528 38.471 40.0067 38.0113C40.4606 37.5515 41.0389 37.2384 41.6685 37.1115C42.2981 36.9847 42.9507 37.0497 43.5438 37.2985C44.1369 37.5473 44.6439 37.9686 45.0005 38.5091C45.3572 39.0497 45.5476 39.6852 45.5476 40.3353C45.5466 41.2067 45.2044 42.0421 44.596 42.6583C43.9877 43.2744 43.1628 43.6211 42.3024 43.6223ZM42.3024 38.6512C41.9734 38.6511 41.6517 38.7498 41.3781 38.9349C41.1044 39.12 40.8912 39.3831 40.7652 39.6909C40.6392 39.9988 40.6062 40.3375 40.6704 40.6644C40.7346 40.9912 40.893 41.2914 41.1257 41.527C41.3583 41.7627 41.6548 41.9231 41.9775 41.9881C42.3002 42.0531 42.6347 42.0197 42.9387 41.8921C43.2427 41.7645 43.5025 41.5485 43.6852 41.2714C43.868 40.9943 43.9655 40.6685 43.9653 40.3353C43.9637 39.8895 43.7878 39.4625 43.4762 39.1477C43.1646 38.8328 42.7426 38.6557 42.3024 38.655V38.6512Z" fill="white"/>
<path id="Vector_5" d="M45.7411 47.5444C45.5313 47.5444 45.3301 47.46 45.1817 47.3097C45.0334 47.1595 44.95 46.9557 44.95 46.7432V46.5659C44.95 46.0701 44.7555 45.5946 44.4094 45.244C44.0632 44.8934 43.5937 44.6965 43.1041 44.6965H41.5003C41.0107 44.6965 40.5412 44.8934 40.195 45.244C39.8488 45.5946 39.6543 46.0701 39.6543 46.5659V46.7432C39.6543 46.9557 39.571 47.1595 39.4226 47.3097C39.2743 47.46 39.073 47.5444 38.8632 47.5444C38.6534 47.5444 38.4522 47.46 38.3038 47.3097C38.1555 47.1595 38.0721 46.9557 38.0721 46.7432V46.5659C38.0732 45.6455 38.4348 44.7631 39.0774 44.1122C39.7201 43.4614 40.5914 43.0952 41.5003 43.0941H43.1041C44.013 43.0952 44.8843 43.4614 45.5269 44.1122C46.1696 44.7631 46.5311 45.6455 46.5322 46.5659V46.7432C46.5322 46.9557 46.4489 47.1595 46.3005 47.3097C46.1522 47.46 45.9509 47.5444 45.7411 47.5444Z" fill="white"/>
</g>
</g>
</svg>
